<svg width="336" height="330" viewBox="0 0 336 330" fill="none" xmlns="http://www.w3.org/2000/svg">
<g id="Group 21" clip-path="url(#clip0_0_784)">
<g id="Group 8">
<g id="Group 6">
<ellipse id="Oval Copy" cx="284.5" cy="142.172" rx="51.5" ry="50.1724" fill="#B1B4C5"/>
<ellipse id="Oval Copy 4" cx="284.5" cy="142.172" rx="51.5" ry="50.1724" fill="url(#paint0_linear_0_784)"/>
<g id="Group 5">
<ellipse id="Oval Copy 2" cx="284.5" cy="143.207" rx="39.5354" ry="39.3103" fill="#E1E4ED"/>
<g id="001-five-fingers">
<path id="Path" d="M299.861 133.029C299.569 132.918 299.266 132.869 298.986 132.889C298.582 132.917 298.255 133.081 298.061 133.35C296.921 134.945 295.988 137.957 295.235 140.377C294.889 141.496 294.425 142.994 294.089 143.705C293.739 141.713 294.135 134.418 294.288 131.608L294.291 131.563C294.397 129.611 294.412 129.268 294.388 129.118C294.219 128.047 293.789 127.345 293.111 127.03C292.425 126.711 291.533 126.852 290.573 127.429C290.092 127.72 289.959 128.717 289.546 133.24L289.544 133.26C289.317 135.745 288.793 141.465 288.149 142.418C287.422 141.085 286.422 133.512 285.99 130.233C285.688 127.937 285.512 126.619 285.394 126.221C285.145 125.387 284.094 124.677 283.053 124.638C282.186 124.595 281.475 125.035 281.136 125.8C280.501 126.505 280.726 128.845 281.427 134.386C281.761 137.023 282.45 142.47 282.017 143.081C281.152 142.987 279.667 139.575 277.602 132.937C277.023 131.078 276.844 130.519 276.666 130.274C276.315 129.421 275.123 128.764 274.055 128.838C273.964 128.845 273.875 128.856 273.787 128.873C273.228 128.984 271.952 129.498 272.224 131.871C272.977 135.161 273.796 137.576 274.591 139.921L274.607 139.968C275.082 141.372 275.531 142.698 275.949 144.171C276.933 147.647 276.551 149.804 276.546 149.829C276.513 150.051 276.445 150.186 276.341 150.234C276.304 150.251 276.257 150.262 276.203 150.265C275.891 150.287 275.423 150.081 275.182 149.946C274.631 148.895 271.889 143.884 269.404 143.189L269.315 143.163L269.224 143.172C268.313 143.257 267.643 143.602 267.233 144.194C266.584 145.131 266.853 146.324 266.918 146.563L266.955 146.649C266.975 146.685 268.968 150.313 269.276 152.001C269.542 153.448 270.918 155.016 272.024 156.276L272.07 156.327C272.431 156.74 272.742 157.096 272.988 157.426C276.198 160.77 281.274 163.582 281.315 163.605C281.949 164.072 282.301 164.523 282.338 164.911C282.362 165.165 282.229 165.317 282.225 165.322L282.114 165.437L282.816 166.118L296.209 165.179L296.779 162.566C298.545 155.185 298.177 148.893 298.171 148.851C298.177 148.619 298.672 146.38 299.07 144.571L299.082 144.525C299.875 140.922 300.862 136.438 301.051 134.732C301.133 134.003 300.666 133.333 299.861 133.029Z" fill="#8A90AC"/>
</g>
</g>
</g>
</g>
<g id="Group 8 Copy 4">
<g id="Group 6_2">
<ellipse id="Oval" cx="51.5" cy="144.5" rx="51.5" ry="52.5" fill="#B1B4C5"/>
<ellipse id="Oval Copy 4_2" cx="51.5" cy="142.172" rx="51.5" ry="50.1724" fill="url(#paint1_linear_0_784)"/>
<g id="Group 5_2">
<ellipse id="Oval Copy 2_2" cx="51.5" cy="143.207" rx="39.5354" ry="39.3103" fill="#E1E4ED"/>
<g id="001-five-fingers_2">
<g id="vulcan-salute">
<path id="Path_2" d="M68.9329 146.218L68.3199 145.609C66.8551 144.151 64.4606 143.834 62.6723 144.856L58.8536 147.026L59.6495 129.643C59.6495 128.186 58.4574 127 56.9908 127C56.6741 127 56.3693 127.056 56.0865 127.157L56.1814 126.225C56.1815 124.751 54.9706 123.552 53.4838 123.552C52.1088 123.552 50.9556 124.577 50.8099 125.892L48.3595 140.613C48.3273 140.813 47.9785 140.793 47.9412 140.667L45.0471 128.865C44.7305 127.767 43.7076 127 42.5595 127C41.7653 127 41.027 127.355 40.5325 127.975C40.0397 128.595 39.8603 129.392 40.0431 130.16L40.6054 132.537C40.2853 132.511 39.9636 132.554 39.657 132.657C38.5157 133.035 37.8197 134.168 38.0043 135.365L39.7079 145.103C39.7079 148.946 40.3852 151.789 40.9542 153.496C41.2776 154.47 41.4419 155.495 41.4419 156.541C41.4419 157.452 41.3149 158.359 41.0626 159.234L39.7417 163.832C39.6671 164.093 39.7196 164.372 39.8822 164.588C40.0465 164.804 40.3022 164.931 40.5748 164.931H56.1814C56.4608 164.931 56.7216 164.798 56.8842 164.573C57.0484 164.349 57.0925 164.059 57.0044 163.796C56.9959 163.774 56.2711 161.548 56.957 158.519C57.8274 157.817 60.8739 155.354 61.9678 154.361C63.7764 152.718 68.7313 147.643 68.9414 147.428C69.2716 147.09 69.2682 146.551 68.9329 146.218Z" fill="#8A90AC"/>
</g>
</g>
</g>
</g>
</g>
<g id="Group 8 Copy">
<g id="Group 6_3">
<ellipse id="Oval_2" cx="168.5" cy="52.5" rx="51.5" ry="52.5" fill="#B1B4C5"/>
<ellipse id="Oval Copy 4_3" cx="168.5" cy="50.1724" rx="51.5" ry="50.1724" fill="url(#paint2_linear_0_784)"/>
<g id="Group 5_3">
<ellipse id="Oval Copy 2_3" cx="168.5" cy="51.2068" rx="39.5354" ry="39.3103" fill="#E1E4ED"/>
<g id="hand">
<path id="Path_3" d="M158.179 50.8704L162.45 44.8999C160.675 44.6057 157.415 44.5405 154.745 47.1953C150.536 51.3802 148.832 60.4205 148.476 62.6088L159.173 73.2447C161.099 73.0808 169.624 71.949 177.84 63.7806C177.927 63.6042 179.928 62.1339 178.292 60.5072C177.511 59.7307 176.218 59.7452 175.42 60.5385C175.014 60.9424 174.383 60.9483 173.985 60.5528C173.587 60.1573 173.593 59.5292 173.999 59.1253L176.902 56.2389C178.377 54.772 176.987 52.2974 174.928 52.8919L172.551 54.9149C172.117 55.2911 171.472 55.2259 171.115 54.816C170.747 54.3916 170.826 53.749 171.245 53.3872C179.547 46.1449 178.335 47.0172 183.676 42.0395C185.671 40.3875 183.161 37.4653 181.195 39.1384L168.274 50.6911C167.898 51.0094 167.322 51.0154 166.952 50.6766C166.525 50.31 166.516 49.7819 166.795 49.3648L175.807 35.4338C177.124 33.6599 174.532 31.6898 173.144 33.4781L159.819 52.0086C159.497 52.4705 158.85 52.5765 158.408 52.2534C157.966 51.958 157.845 51.3165 158.179 50.8704Z" fill="#8A90AC"/>
</g>
</g>
</g>
</g>
<g id="Group 8 Copy 2">
<g id="Group 6_4">
<ellipse id="Oval_3" cx="238.5" cy="277.5" rx="51.5" ry="52.5" fill="#B1B4C5"/>
<ellipse id="Oval Copy 4_4" cx="238.5" cy="275.172" rx="51.5" ry="50.1724" fill="url(#paint3_linear_0_784)"/>
<g id="Group 5_4">
<ellipse id="Oval Copy 2_4" cx="238.5" cy="276.207" rx="39.5354" ry="39.3103" fill="#E1E4ED"/>
<g id="003-fist">
<path id="Path_4" d="M253.815 270.561C253.359 264.818 246.901 265.404 246.901 265.404C244.175 260.605 239.916 264.081 239.916 264.081C236.645 259.377 232.543 263.736 232.543 263.736C225.47 262.974 225.744 268.749 225.744 268.749C225.578 270.585 226.741 276.265 226.741 276.265C225.692 272.991 223.416 275.709 223.416 275.709C220.618 280.021 222.724 282.381 222.724 282.381C226.51 286.812 234.578 292.131 234.578 292.131C237.499 293.802 236.264 295.293 236.264 295.293L253.934 292.377L254.34 289.03C257.026 280.916 253.815 270.561 253.815 270.561Z" fill="#8A90AC"/>
</g>
</g>
</g>
</g>
<g id="Group 8 Copy 3">
<g id="Group 6_5">
<ellipse id="Oval_4" cx="97.5" cy="277.5" rx="51.5" ry="52.5" fill="#B1B4C5"/>
<ellipse id="Oval Copy 4_5" cx="97.5" cy="275.172" rx="51.5" ry="50.1724" fill="url(#paint4_linear_0_784)"/>
<g id="Group 5_5">
<ellipse id="Oval Copy 2_5" cx="97.5" cy="276.207" rx="39.5354" ry="39.3103" fill="#E1E4ED"/>
<g id="lizard">
<path id="Combined Shape" fill-rule="evenodd" clip-rule="evenodd" d="M116.465 257.548C114.766 256.687 112.568 256.994 110.275 258.413C108.461 259.535 106.796 261.239 105.93 262.86C104.275 265.956 104.924 268.686 105.341 269.839C104.77 271.65 103.982 273.155 102.98 274.352C102.172 273.341 101.721 272.067 101.721 270.735V270.67L103.845 268.481C104.072 268.247 104.659 267.325 103.845 266.485C103.31 265.934 102.444 265.934 101.909 266.485L101.721 266.679V266.238C101.721 265.459 101.108 264.827 100.353 264.827C99.5968 264.827 98.9839 265.459 98.9839 266.238V266.679L98.796 266.485C98.2616 265.934 97.3949 265.934 96.8604 266.485C96.3259 267.036 96.3259 267.93 96.8604 268.481L98.984 270.67V270.735C98.984 272.751 99.6729 274.678 100.908 276.199C98.6901 277.641 95.8168 278.129 92.3044 277.654C91.0372 277.483 89.7577 277.461 88.5035 277.587C86.9306 276.001 84.7748 275.101 82.5042 275.101H82.4402L80.2863 272.985C79.7442 272.453 78.8651 272.453 78.323 272.985C77.7809 273.518 77.7809 274.382 78.323 274.914L78.5136 275.102H78.0801C77.3135 275.102 76.6919 275.712 76.6919 276.465C76.6919 277.219 77.3135 277.829 78.0801 277.829H78.5137L78.323 278.016C77.7809 278.549 77.7809 279.413 78.323 279.945C78.5941 280.212 78.9494 280.345 79.3046 280.345C79.6599 280.345 80.0153 280.212 80.2864 279.945L82.4403 277.829H82.5042C83.3448 277.829 84.1614 278.014 84.9018 278.359C85.0017 278.332 85.1019 278.305 85.2024 278.28C85.1717 278.29 85.141 278.3 85.1104 278.31C82.7614 279.099 80.6427 280.467 78.9836 282.267C76.1225 285.372 75.0747 289.244 75.9535 293.465C76.6006 296.573 78.0757 298.775 78.1382 298.868C78.4028 299.258 78.8397 299.483 79.2962 299.483C79.4078 299.483 79.5205 299.469 79.6321 299.442C80.2008 299.301 80.6219 298.82 80.6876 298.236C80.6949 298.172 81.4539 291.787 85.3734 288.174C85.8726 287.714 87.7599 286.247 91.0876 286.698C92.2622 286.857 93.3984 286.951 94.4955 286.982C95.0972 288.15 95.2827 289.5 95.0011 290.808L94.9874 290.872L92.4175 292.541C91.7707 292.961 91.5832 293.831 91.9989 294.485C92.4146 295.139 93.2759 295.328 93.9229 294.908L94.1502 294.761L94.0577 295.19C93.8943 295.949 94.3708 296.699 95.1221 296.864C95.2219 296.886 95.3213 296.896 95.4195 296.896C96.0601 296.896 96.6367 296.447 96.7786 295.788L96.8711 295.359L97.0172 295.589C97.2832 296.007 97.7317 296.236 98.1897 296.236C98.4473 296.236 98.7081 296.163 98.9411 296.012C99.5878 295.592 99.7754 294.721 99.3596 294.068L97.7082 291.47L97.7219 291.407C98.0484 289.89 97.956 288.336 97.4792 286.9C101.267 286.57 104.507 285.366 107.158 283.295C107.471 283.05 107.776 282.794 108.071 282.527C109.581 283.826 111.523 284.553 113.557 284.553H113.621L115.767 286.669C116.037 286.936 116.391 287.069 116.745 287.069C117.099 287.069 117.453 286.936 117.723 286.669C118.264 286.137 118.264 285.273 117.723 284.741L117.534 284.553H117.965C118.729 284.553 119.348 283.943 119.348 283.19C119.348 282.436 118.729 281.826 117.965 281.826H117.533L117.723 281.638C118.263 281.106 118.263 280.242 117.723 279.71C117.183 279.177 116.307 279.177 115.767 279.71L113.621 281.826H113.557C112.224 281.826 110.95 281.359 109.95 280.523C111.477 278.607 112.674 276.29 113.525 273.595C115.725 272.814 117.283 271.53 118.162 269.773C119.72 266.661 120.271 259.478 116.465 257.548Z" fill="#8A90AC"/>
</g>
</g>
</g>
</g>
<g id="Group 13 Copy 2">
<g id="Group 15">
<rect id="Rectangle" x="80.2372" y="88.2275" width="32.6923" height="2.66667" rx="1.33333" transform="rotate(-40 80.2372 88.2275)" fill="#B1B4C5"/>
<g id="Group 12">
<g id="Group 14">
<path id="Rectangle Copy 2" fill-rule="evenodd" clip-rule="evenodd" d="M96.5229 67.6304C96.5773 66.9482 97.1832 66.4448 97.8638 66.5165L105.907 67.3638C106.564 67.4329 107.045 68.0129 106.993 68.671C106.939 69.3533 106.333 69.8566 105.652 69.7849L97.6088 68.9377C96.9522 68.8685 96.4705 68.2886 96.5229 67.6304Z" fill="#B1B4C5"/>
<path id="Rectangle Copy 3" fill-rule="evenodd" clip-rule="evenodd" d="M105.064 77.8087C104.406 77.7461 103.919 77.1709 103.965 76.5123L104.527 68.4441C104.575 67.7614 105.176 67.252 105.857 67.317C106.514 67.3796 107.002 67.9548 106.956 68.6134L106.394 76.6816C106.346 77.3643 105.745 77.8737 105.064 77.8087Z" fill="#B1B4C5"/>
</g>
</g>
</g>
</g>
<g id="Group 13 Copy 3">
<g id="Group 15_2">
<rect id="Rectangle_2" width="32.6923" height="2.66667" rx="1.33333" transform="matrix(0.766044 0.642788 0.642788 -0.766044 228.237 67.7725)" fill="#B1B4C5"/>
<g id="Group 12_2">
<g id="Group 14_2">
<path id="Rectangle Copy 2_2" fill-rule="evenodd" clip-rule="evenodd" d="M244.523 88.3696C244.577 89.0518 245.183 89.5552 245.864 89.4835L253.907 88.6362C254.564 88.5671 255.045 87.9871 254.993 87.329C254.939 86.6467 254.333 86.1434 253.652 86.2151L245.609 87.0623C244.952 87.1315 244.47 87.7114 244.523 88.3696Z" fill="#B1B4C5"/>
<path id="Rectangle Copy 3_2" fill-rule="evenodd" clip-rule="evenodd" d="M253.064 78.1913C252.406 78.2539 251.919 78.8291 251.965 79.4877L252.527 87.5559C252.575 88.2386 253.176 88.748 253.857 88.683C254.514 88.6204 255.002 88.0452 254.956 87.3866L254.394 79.3184C254.346 78.6357 253.745 78.1263 253.064 78.1913Z" fill="#B1B4C5"/>
</g>
</g>
</g>
</g>
<g id="Group 13 Copy 4">
<g id="Group 15_3">
<rect id="Rectangle_3" x="300.097" y="204.826" width="32.6923" height="2.66667" rx="1.33333" transform="rotate(127 300.097 204.826)" fill="#B1B4C5"/>
<g id="Group 12_3">
<g id="Group 14_3">
<path id="Rectangle Copy 2_3" fill-rule="evenodd" clip-rule="evenodd" d="M288.862 228.559C288.962 229.236 288.485 229.863 287.806 229.946L279.778 230.93C279.123 231.01 278.523 230.554 278.426 229.901C278.325 229.224 278.802 228.597 279.482 228.514L287.509 227.53C288.165 227.45 288.765 227.906 288.862 228.559Z" fill="#B1B4C5"/>
<path id="Rectangle Copy 3_3" fill-rule="evenodd" clip-rule="evenodd" d="M278.25 220.563C278.904 220.476 279.509 220.927 279.612 221.579L280.879 229.567C280.986 230.243 280.516 230.874 279.837 230.964C279.183 231.051 278.578 230.6 278.475 229.948L277.208 221.96C277.101 221.284 277.571 220.653 278.25 220.563Z" fill="#B1B4C5"/>
</g>
</g>
</g>
</g>
<g id="Group 13 Copy 6">
<g id="Group 15_4">
<rect id="Rectangle_4" width="32.6923" height="2.66667" rx="1.33333" transform="matrix(-1 0 0 1 186 303.667)" fill="#B1B4C5"/>
<g id="Group 12_4">
<g id="Group 14_4">
<path id="Rectangle Copy 2_4" fill-rule="evenodd" clip-rule="evenodd" d="M160.285 298.357C159.804 297.869 159.017 297.873 158.541 298.365L152.924 304.184C152.466 304.659 152.47 305.413 152.933 305.884C153.413 306.371 154.201 306.368 154.676 305.875L160.293 300.056C160.752 299.581 160.748 298.827 160.285 298.357Z" fill="#B1B4C5"/>
<path id="Rectangle Copy 3_4" fill-rule="evenodd" clip-rule="evenodd" d="M160.285 311.643C160.748 311.173 160.752 310.419 160.293 309.944L154.676 304.125C154.201 303.632 153.413 303.629 152.933 304.116C152.47 304.587 152.466 305.341 152.924 305.816L158.541 311.635C159.017 312.127 159.804 312.131 160.285 311.643Z" fill="#B1B4C5"/>
</g>
</g>
</g>
</g>
<g id="Group 13 Copy 5">
<g id="Group 15_5">
<rect id="Rectangle_5" width="32.6923" height="2.66667" rx="1.33333" transform="matrix(-0.601815 -0.798635 -0.798635 0.601815 59.0967 231.174)" fill="#B1B4C5"/>
<g id="Group 12_5">
<g id="Group 14_5">
<path id="Rectangle Copy 2_5" fill-rule="evenodd" clip-rule="evenodd" d="M47.8617 207.441C47.9622 206.764 47.485 206.137 46.8057 206.054L38.778 205.07C38.1227 204.99 37.5228 205.446 37.4258 206.099C37.3253 206.776 37.8025 207.403 38.4818 207.486L46.5095 208.47C47.1648 208.55 47.7647 208.094 47.8617 207.441Z" fill="#B1B4C5"/>
<path id="Rectangle Copy 3_5" fill-rule="evenodd" clip-rule="evenodd" d="M37.2501 215.437C37.9045 215.524 38.5089 215.073 38.6124 214.421L39.8794 206.433C39.9866 205.757 39.5156 205.126 38.8372 205.036C38.1827 204.949 37.5783 205.4 37.4749 206.052L36.2079 214.04C36.1007 214.716 36.5716 215.347 37.2501 215.437Z" fill="#B1B4C5"/>
</g>
</g>
</g>
</g>
<g id="Group 20">
<g id="Group 19" clip-path="url(#clip1_0_784)">
<g id="Group 15_6">
<rect id="Rectangle_6" width="85" height="2.66667" rx="1.33333" transform="matrix(-1 0 0 1 211.308 137.667)" fill="#B1B4C5"/>
<g id="Group 12_6">
<g id="Group 14_6">
<path id="Rectangle Copy 2_6" fill-rule="evenodd" clip-rule="evenodd" d="M133.285 132.357C132.804 131.869 132.017 131.873 131.541 132.365L125.924 138.184C125.466 138.659 125.47 139.413 125.933 139.884C126.413 140.371 127.201 140.368 127.676 139.875L133.293 134.056C133.752 133.581 133.748 132.827 133.285 132.357Z" fill="#B1B4C5"/>
<path id="Rectangle Copy 3_6" fill-rule="evenodd" clip-rule="evenodd" d="M133.285 145.643C133.748 145.173 133.752 144.419 133.293 143.944L127.676 138.125C127.201 137.632 126.413 137.629 125.933 138.116C125.47 138.587 125.466 139.341 125.924 139.816L131.541 145.635C132.017 146.127 132.804 146.131 133.285 145.643Z" fill="#B1B4C5"/>
</g>
</g>
</g>
<path id="BEATS" d="M163.54 148V143.716H166.246V144.466H164.446V145.36H164.806C165.21 145.36 165.54 145.416 165.796 145.528C166.056 145.64 166.248 145.794 166.372 145.99C166.496 146.186 166.558 146.41 166.558 146.662C166.558 146.942 166.496 147.182 166.372 147.382C166.248 147.582 166.056 147.736 165.796 147.844C165.536 147.948 165.2 148 164.788 148H163.54ZM164.752 147.256C165.028 147.256 165.244 147.212 165.4 147.124C165.56 147.036 165.64 146.882 165.64 146.662C165.64 146.51 165.6 146.394 165.52 146.314C165.444 146.234 165.334 146.18 165.19 146.152C165.05 146.12 164.88 146.104 164.68 146.104H164.446V147.256H164.752ZM167.912 143.8C167.972 143.8 167.992 143.828 167.972 143.884L167.522 145.096C167.51 145.136 167.482 145.156 167.438 145.156H166.91C166.854 145.156 166.832 145.13 166.844 145.078L167.132 143.86C167.144 143.82 167.17 143.8 167.21 143.8H167.912ZM170.47 144.412C170.31 144.412 170.16 144.436 170.02 144.484C169.884 144.528 169.764 144.596 169.66 144.688C169.56 144.776 169.48 144.886 169.42 145.018C169.36 145.15 169.324 145.3 169.312 145.468H171.166V146.212H169.306C169.318 146.384 169.352 146.538 169.408 146.674C169.464 146.81 169.54 146.926 169.636 147.022C169.736 147.114 169.856 147.184 169.996 147.232C170.136 147.28 170.298 147.304 170.482 147.304C170.674 147.304 170.866 147.284 171.058 147.244C171.254 147.204 171.466 147.148 171.694 147.076V147.838C171.49 147.914 171.29 147.97 171.094 148.006C170.898 148.042 170.676 148.06 170.428 148.06C169.952 148.06 169.56 147.97 169.252 147.79C168.948 147.606 168.722 147.35 168.574 147.022C168.426 146.69 168.352 146.304 168.352 145.864C168.352 145.54 168.398 145.244 168.49 144.976C168.586 144.704 168.726 144.47 168.91 144.274C169.094 144.078 169.32 143.926 169.588 143.818C169.856 143.71 170.164 143.656 170.512 143.656C170.768 143.656 171.004 143.684 171.22 143.74C171.436 143.792 171.648 143.864 171.856 143.956L171.532 144.694C171.356 144.618 171.186 144.552 171.022 144.496C170.862 144.44 170.678 144.412 170.47 144.412Z" fill="#B1B4C5"/>
</g>
<g id="Group 19 Copy" clip-path="url(#clip2_0_784)">
<g id="Group 15_7">
<rect id="Rectangle_7" x="115.753" y="172.439" width="85" height="2.66667" rx="1.33333" transform="rotate(40 115.753 172.439)" fill="#B1B4C5"/>
<g id="Group 12_7">
<g id="Group 14_7">
<path id="Rectangle Copy 2_7" fill-rule="evenodd" clip-rule="evenodd" d="M178.936 218.523C179.617 218.458 180.218 218.968 180.266 219.65L180.828 227.719C180.874 228.377 180.386 228.952 179.729 229.015C179.048 229.08 178.447 228.571 178.399 227.888L177.837 219.82C177.791 219.161 178.278 218.586 178.936 218.523Z" fill="#B1B4C5"/>
<path id="Rectangle Copy 3_7" fill-rule="evenodd" clip-rule="evenodd" d="M170.395 228.702C170.342 228.044 170.824 227.464 171.481 227.395L179.524 226.548C180.205 226.476 180.811 226.979 180.865 227.661C180.917 228.32 180.436 228.9 179.779 228.969L171.736 229.816C171.055 229.888 170.449 229.384 170.395 228.702Z" fill="#B1B4C5"/>
</g>
</g>
</g>
<path id="BEATS_2" d="M145.571 192.673L148.325 189.391L150.398 191.13L149.915 191.705L148.537 190.548L147.962 191.233L148.238 191.464C148.547 191.724 148.764 191.979 148.888 192.229C149.015 192.482 149.063 192.723 149.032 192.953C149.001 193.183 148.905 193.395 148.743 193.588C148.563 193.802 148.361 193.946 148.138 194.02C147.914 194.093 147.668 194.088 147.399 194.003C147.133 193.916 146.843 193.74 146.527 193.475L145.571 192.673ZM146.978 192.882C147.189 193.059 147.383 193.164 147.559 193.197C147.738 193.233 147.898 193.166 148.04 192.998C148.137 192.881 148.181 192.767 148.171 192.654C148.165 192.544 148.115 192.432 148.023 192.318C147.936 192.203 147.816 192.082 147.663 191.953L147.484 191.803L146.743 192.685L146.978 192.882ZM151.62 192.266C151.666 192.304 151.663 192.339 151.612 192.369L150.488 193.008C150.453 193.031 150.419 193.028 150.385 193L149.981 192.66C149.938 192.624 149.938 192.59 149.98 192.558L150.984 191.81C151.019 191.787 151.052 191.789 151.082 191.814L151.62 192.266ZM153.186 194.379C153.063 194.276 152.933 194.198 152.795 194.144C152.662 194.091 152.527 194.066 152.388 194.069C152.255 194.072 152.123 194.105 151.992 194.168C151.861 194.23 151.737 194.322 151.62 194.443L153.04 195.635L152.562 196.205L151.137 195.009C151.036 195.149 150.963 195.289 150.918 195.429C150.874 195.569 150.858 195.707 150.869 195.842C150.887 195.977 150.934 196.107 151.01 196.234C151.087 196.361 151.195 196.483 151.336 196.602C151.483 196.725 151.643 196.833 151.816 196.926C151.992 197.021 152.19 197.115 152.411 197.206L151.921 197.79C151.716 197.717 151.527 197.631 151.354 197.533C151.18 197.434 150.999 197.305 150.809 197.146C150.444 196.84 150.202 196.519 150.082 196.183C149.967 195.847 149.958 195.506 150.056 195.159C150.156 194.81 150.347 194.466 150.63 194.129C150.838 193.881 151.064 193.684 151.307 193.538C151.555 193.391 151.813 193.302 152.08 193.27C152.347 193.238 152.617 193.267 152.892 193.357C153.167 193.446 153.437 193.603 153.704 193.826C153.9 193.991 154.063 194.164 154.192 194.346C154.324 194.525 154.441 194.716 154.541 194.92L153.818 195.277C153.732 195.106 153.644 194.946 153.555 194.798C153.468 194.652 153.345 194.512 153.186 194.379Z" fill="#B1B4C5"/>
</g>
<g id="Group 19 Copy 4" clip-path="url(#clip3_0_784)">
<g id="Group 15_8">
<rect id="Rectangle_8" x="153.896" y="228.114" width="85" height="2.66667" rx="1.33333" transform="rotate(-40 153.896 228.114)" fill="#B1B4C5"/>
<g id="Group 12_8">
<g id="Group 14_8">
<path id="Rectangle Copy 2_8" fill-rule="evenodd" clip-rule="evenodd" d="M210.251 173.894C210.306 173.212 210.912 172.709 211.592 172.78L219.636 173.627C220.292 173.697 220.774 174.277 220.722 174.935C220.667 175.617 220.061 176.12 219.381 176.049L211.337 175.201C210.681 175.132 210.199 174.552 210.251 173.894Z" fill="#B1B4C5"/>
<path id="Rectangle Copy 3_8" fill-rule="evenodd" clip-rule="evenodd" d="M218.792 184.072C218.135 184.01 217.648 183.435 217.693 182.776L218.256 174.708C218.303 174.025 218.904 173.516 219.586 173.581C220.243 173.643 220.73 174.218 220.684 174.877L220.122 182.945C220.074 183.628 219.474 184.137 218.792 184.072Z" fill="#B1B4C5"/>
</g>
</g>
</g>
<path id="BEATS_3" d="M179 202.263L176.246 198.981L178.319 197.242L178.801 197.817L177.422 198.974L177.997 199.658L178.273 199.427C178.582 199.167 178.871 198.998 179.139 198.919C179.41 198.838 179.656 198.833 179.877 198.903C180.098 198.973 180.29 199.105 180.452 199.298C180.632 199.513 180.738 199.736 180.772 199.969C180.806 200.202 180.757 200.444 180.628 200.693C180.495 200.94 180.271 201.196 179.956 201.461L179 202.263ZM179.45 200.914C179.661 200.737 179.799 200.564 179.862 200.396C179.928 200.226 179.89 200.057 179.748 199.888C179.651 199.772 179.546 199.709 179.433 199.699C179.323 199.686 179.204 199.716 179.076 199.787C178.948 199.852 178.808 199.949 178.654 200.078L178.475 200.228L179.216 201.111L179.45 200.914ZM179.649 196.235C179.695 196.197 179.729 196.205 179.749 196.261L180.184 197.479C180.2 197.517 180.192 197.551 180.158 197.579L179.753 197.918C179.71 197.954 179.677 197.948 179.653 197.901L179.09 196.783C179.074 196.744 179.081 196.712 179.112 196.687L179.649 196.235ZM182.002 195.06C181.88 195.163 181.78 195.278 181.704 195.404C181.628 195.526 181.58 195.655 181.559 195.792C181.539 195.924 181.548 196.06 181.587 196.199C181.626 196.339 181.695 196.477 181.794 196.613L183.214 195.422L183.692 195.992L182.267 197.187C182.387 197.311 182.512 197.407 182.643 197.476C182.773 197.544 182.906 197.584 183.041 197.596C183.177 197.602 183.314 197.578 183.452 197.525C183.59 197.472 183.729 197.386 183.87 197.268C184.017 197.144 184.152 197.006 184.273 196.852C184.397 196.695 184.524 196.516 184.652 196.314L185.142 196.898C185.034 197.087 184.917 197.259 184.79 197.412C184.663 197.566 184.505 197.722 184.315 197.882C183.95 198.188 183.592 198.371 183.24 198.431C182.889 198.485 182.552 198.434 182.227 198.278C181.901 198.119 181.596 197.871 181.313 197.534C181.105 197.286 180.95 197.029 180.848 196.765C180.747 196.495 180.703 196.226 180.718 195.957C180.733 195.689 180.809 195.427 180.945 195.172C181.08 194.917 181.282 194.678 181.548 194.454C181.744 194.289 181.943 194.159 182.145 194.063C182.344 193.964 182.552 193.883 182.771 193.82L182.997 194.593C182.813 194.648 182.641 194.707 182.479 194.77C182.32 194.83 182.161 194.926 182.002 195.06Z" fill="#B1B4C5"/>
</g>
<g id="Group 19 Copy 2" clip-path="url(#clip4_0_784)">
<g id="Group 15_9">
<rect id="Rectangle_9" x="213.378" y="206.126" width="85" height="2.66667" rx="1.33333" transform="rotate(-110 213.378 206.126)" fill="#B1B4C5"/>
<g id="Group 12_9">
<g id="Group 14_9">
<path id="Rectangle Copy 2_9" fill-rule="evenodd" clip-rule="evenodd" d="M181.703 134.624C181.08 134.34 180.814 133.598 181.115 132.983L184.662 125.715C184.951 125.122 185.661 124.867 186.262 125.142C186.884 125.426 187.15 126.168 186.85 126.783L183.303 134.051C183.013 134.644 182.303 134.899 181.703 134.624Z" fill="#B1B4C5"/>
<path id="Rectangle Copy 3_9" fill-rule="evenodd" clip-rule="evenodd" d="M194.189 130.08C193.905 130.676 193.198 130.938 192.595 130.669L185.205 127.381C184.58 127.103 184.307 126.364 184.601 125.746C184.885 125.15 185.592 124.888 186.195 125.157L193.584 128.445C194.21 128.723 194.483 129.462 194.189 130.08Z" fill="#B1B4C5"/>
</g>
</g>
</g>
<path id="BEATS_4" d="M197.672 173.694L193.646 175.159L192.721 172.617L193.426 172.36L194.041 174.052L194.881 173.746L194.758 173.407C194.62 173.028 194.56 172.699 194.578 172.42C194.594 172.137 194.673 171.904 194.815 171.72C194.956 171.537 195.146 171.402 195.383 171.316C195.646 171.22 195.892 171.196 196.123 171.244C196.353 171.292 196.563 171.42 196.754 171.628C196.941 171.836 197.104 172.134 197.245 172.521L197.672 173.694ZM196.558 172.81C196.464 172.55 196.349 172.362 196.213 172.246C196.075 172.126 195.903 172.103 195.697 172.178C195.554 172.23 195.458 172.308 195.411 172.41C195.361 172.509 195.348 172.631 195.371 172.776C195.389 172.918 195.432 173.083 195.501 173.271L195.581 173.491L196.663 173.097L196.558 172.81ZM192.23 171.022C192.209 170.966 192.229 170.937 192.288 170.937L193.581 170.945C193.623 170.943 193.651 170.962 193.666 171.004L193.847 171.5C193.866 171.553 193.849 171.582 193.796 171.589L192.553 171.735C192.511 171.737 192.484 171.719 192.47 171.682L192.23 171.022ZM191.93 168.409C191.985 168.56 192.059 168.692 192.152 168.808C192.24 168.92 192.345 169.01 192.467 169.076C192.584 169.14 192.714 169.178 192.859 169.189C193.003 169.2 193.157 169.183 193.319 169.136L192.685 167.394L193.384 167.14L194.02 168.888C194.177 168.817 194.31 168.733 194.419 168.634C194.528 168.535 194.611 168.423 194.668 168.3C194.72 168.175 194.745 168.038 194.742 167.89C194.74 167.742 194.707 167.582 194.644 167.409C194.578 167.229 194.494 167.055 194.39 166.888C194.286 166.718 194.161 166.538 194.015 166.348L194.731 166.087C194.872 166.253 194.993 166.422 195.094 166.594C195.195 166.766 195.288 166.968 195.373 167.201C195.535 167.648 195.585 168.048 195.521 168.399C195.452 168.747 195.289 169.047 195.031 169.298C194.77 169.551 194.433 169.753 194.019 169.903C193.715 170.014 193.421 170.072 193.137 170.077C192.849 170.08 192.581 170.028 192.334 169.922C192.087 169.817 191.867 169.656 191.674 169.441C191.481 169.226 191.325 168.955 191.206 168.628C191.118 168.388 191.064 168.157 191.042 167.934C191.017 167.714 191.012 167.49 191.028 167.263L191.832 167.315C191.821 167.506 191.817 167.689 191.82 167.862C191.823 168.031 191.859 168.214 191.93 168.409Z" fill="#B1B4C5"/>
</g>
<g id="Group 19 Copy 3" clip-path="url(#clip5_0_784)">
<g id="Group 15_10">
<rect id="Rectangle_10" x="152.246" y="124.734" width="85" height="2.66667" rx="1.33333" transform="rotate(110 152.246 124.734)" fill="#B1B4C5"/>
<g id="Group 12_10">
<g id="Group 14_10">
<path id="Rectangle Copy 2_10" fill-rule="evenodd" clip-rule="evenodd" d="M130.55 199.868C130.845 200.486 130.571 201.224 129.946 201.503L122.557 204.791C121.954 205.059 121.246 204.798 120.963 204.201C120.669 203.583 120.942 202.845 121.567 202.566L128.956 199.278C129.56 199.01 130.267 199.271 130.55 199.868Z" fill="#B1B4C5"/>
<path id="Rectangle Copy 3_10" fill-rule="evenodd" clip-rule="evenodd" d="M118.065 195.323C118.665 195.049 119.375 195.303 119.664 195.897L123.211 203.165C123.512 203.78 123.246 204.522 122.623 204.806C122.023 205.08 121.313 204.826 121.024 204.233L117.476 196.964C117.176 196.349 117.442 195.608 118.065 195.323Z" fill="#B1B4C5"/>
</g>
</g>
</g>
<path id="BEATS_5" d="M143.431 159.674L147.456 161.139L146.531 163.682L145.826 163.425L146.442 161.734L145.602 161.428L145.479 161.766C145.34 162.146 145.175 162.437 144.982 162.639C144.788 162.845 144.578 162.973 144.351 163.023C144.124 163.072 143.893 163.054 143.656 162.967C143.393 162.872 143.188 162.731 143.043 162.546C142.897 162.362 142.818 162.128 142.806 161.847C142.797 161.567 142.863 161.234 143.004 160.847L143.431 159.674ZM143.715 161.067C143.621 161.327 143.589 161.545 143.618 161.721C143.646 161.902 143.763 162.03 143.97 162.105C144.113 162.157 144.235 162.159 144.338 162.111C144.439 162.067 144.527 161.982 144.603 161.856C144.681 161.736 144.754 161.582 144.823 161.394L144.903 161.174L143.82 160.78L143.715 161.067ZM145.882 165.219C145.862 165.275 145.828 165.284 145.783 165.247L144.798 164.409C144.764 164.384 144.755 164.351 144.77 164.31L144.951 163.814C144.97 163.761 145.002 163.749 145.047 163.778L146.093 164.465C146.126 164.49 146.136 164.522 146.122 164.559L145.882 165.219ZM144.432 167.413C144.487 167.263 144.516 167.114 144.519 166.966C144.524 166.823 144.501 166.687 144.45 166.557C144.401 166.433 144.325 166.321 144.222 166.219C144.118 166.118 143.99 166.032 143.836 165.964L143.202 167.706L142.503 167.451L143.139 165.704C142.973 165.656 142.817 165.635 142.67 165.641C142.523 165.648 142.388 165.679 142.265 165.737C142.144 165.799 142.037 165.888 141.944 166.003C141.851 166.118 141.774 166.262 141.711 166.435C141.645 166.616 141.598 166.803 141.57 166.997C141.541 167.195 141.521 167.413 141.51 167.652L140.794 167.391C140.793 167.174 140.808 166.967 140.842 166.77C140.875 166.574 140.934 166.359 141.019 166.126C141.181 165.679 141.4 165.341 141.675 165.113C141.951 164.89 142.269 164.766 142.628 164.739C142.991 164.713 143.379 164.776 143.792 164.926C144.097 165.037 144.359 165.181 144.579 165.36C144.802 165.543 144.974 165.754 145.096 165.994C145.217 166.234 145.282 166.499 145.292 166.787C145.302 167.076 145.247 167.384 145.128 167.711C145.041 167.952 144.934 168.164 144.807 168.348C144.684 168.533 144.544 168.707 144.387 168.871L143.804 168.315C143.936 168.175 144.056 168.038 144.165 167.903C144.272 167.772 144.361 167.608 144.432 167.413Z" fill="#B1B4C5"/>
</g>
</g>
<path id="BEATS_6" d="M252.99 64V56.146H257.951V57.521H254.651V59.16H255.311C256.052 59.16 256.657 59.2627 257.126 59.468C257.603 59.6733 257.955 59.9557 258.182 60.315C258.409 60.6743 258.523 61.085 258.523 61.547C258.523 62.0603 258.409 62.5003 258.182 62.867C257.955 63.2337 257.603 63.516 257.126 63.714C256.649 63.9047 256.033 64 255.278 64H252.99ZM255.212 62.636C255.718 62.636 256.114 62.5553 256.4 62.394C256.693 62.2327 256.84 61.9503 256.84 61.547C256.84 61.2683 256.767 61.0557 256.62 60.909C256.481 60.7623 256.279 60.6633 256.015 60.612C255.758 60.5533 255.447 60.524 255.08 60.524H254.651V62.636H255.212ZM261.006 56.3C261.116 56.3 261.152 56.3513 261.116 56.454L260.291 58.676C260.269 58.7493 260.217 58.786 260.137 58.786H259.169C259.066 58.786 259.026 58.7383 259.048 58.643L259.576 56.41C259.598 56.3367 259.645 56.3 259.719 56.3H261.006ZM265.695 57.422C265.401 57.422 265.126 57.466 264.87 57.554C264.62 57.6347 264.4 57.7593 264.21 57.928C264.026 58.0893 263.88 58.291 263.77 58.533C263.66 58.775 263.594 59.05 263.572 59.358H266.971V60.722H263.561C263.583 61.0373 263.645 61.3197 263.748 61.569C263.85 61.8183 263.99 62.031 264.166 62.207C264.349 62.3757 264.569 62.504 264.826 62.592C265.082 62.68 265.379 62.724 265.717 62.724C266.069 62.724 266.421 62.6873 266.773 62.614C267.132 62.5407 267.521 62.438 267.939 62.306V63.703C267.565 63.8423 267.198 63.945 266.839 64.011C266.479 64.077 266.072 64.11 265.618 64.11C264.745 64.11 264.026 63.945 263.462 63.615C262.904 63.2777 262.49 62.8083 262.219 62.207C261.947 61.5983 261.812 60.8907 261.812 60.084C261.812 59.49 261.896 58.9473 262.065 58.456C262.241 57.9573 262.497 57.5283 262.835 57.169C263.172 56.8097 263.586 56.531 264.078 56.333C264.569 56.135 265.134 56.036 265.772 56.036C266.241 56.036 266.674 56.0873 267.07 56.19C267.466 56.2853 267.854 56.4173 268.236 56.586L267.642 57.939C267.319 57.7997 267.007 57.6787 266.707 57.576C266.413 57.4733 266.076 57.422 265.695 57.422Z" fill="#B1B4C5"/>
<path id="BEATS Copy 3" d="M55.99 64V56.146H60.951V57.521H57.651V59.16H58.311C59.0517 59.16 59.6567 59.2627 60.126 59.468C60.6027 59.6733 60.9547 59.9557 61.182 60.315C61.4093 60.6743 61.523 61.085 61.523 61.547C61.523 62.0603 61.4093 62.5003 61.182 62.867C60.9547 63.2337 60.6027 63.516 60.126 63.714C59.6493 63.9047 59.0333 64 58.278 64H55.99ZM58.212 62.636C58.718 62.636 59.114 62.5553 59.4 62.394C59.6933 62.2327 59.84 61.9503 59.84 61.547C59.84 61.2683 59.7667 61.0557 59.62 60.909C59.4807 60.7623 59.279 60.6633 59.015 60.612C58.7583 60.5533 58.4467 60.524 58.08 60.524H57.651V62.636H58.212ZM64.0056 56.3C64.1156 56.3 64.1523 56.3513 64.1156 56.454L63.2906 58.676C63.2686 58.7493 63.2173 58.786 63.1366 58.786H62.1686C62.066 58.786 62.0256 58.7383 62.0476 58.643L62.5756 56.41C62.5976 56.3367 62.6453 56.3 62.7186 56.3H64.0056ZM68.6948 57.422C68.4015 57.422 68.1265 57.466 67.8698 57.554C67.6205 57.6347 67.4005 57.7593 67.2098 57.928C67.0265 58.0893 66.8798 58.291 66.7698 58.533C66.6598 58.775 66.5938 59.05 66.5718 59.358H69.9708V60.722H66.5608C66.5828 61.0373 66.6452 61.3197 66.7478 61.569C66.8505 61.8183 66.9898 62.031 67.1658 62.207C67.3492 62.3757 67.5692 62.504 67.8258 62.592C68.0825 62.68 68.3795 62.724 68.7168 62.724C69.0688 62.724 69.4208 62.6873 69.7728 62.614C70.1322 62.5407 70.5208 62.438 70.9388 62.306V63.703C70.5648 63.8423 70.1982 63.945 69.8388 64.011C69.4795 64.077 69.0725 64.11 68.6178 64.11C67.7452 64.11 67.0265 63.945 66.4618 63.615C65.9045 63.2777 65.4902 62.8083 65.2188 62.207C64.9475 61.5983 64.8118 60.8907 64.8118 60.084C64.8118 59.49 64.8962 58.9473 65.0648 58.456C65.2408 57.9573 65.4975 57.5283 65.8348 57.169C66.1722 56.8097 66.5865 56.531 67.0778 56.333C67.5692 56.135 68.1338 56.036 68.7718 56.036C69.2412 56.036 69.6738 56.0873 70.0698 56.19C70.4658 56.2853 70.8545 56.4173 71.2358 56.586L70.6418 57.939C70.3192 57.7997 70.0075 57.6787 69.7068 57.576C69.4135 57.4733 69.0762 57.422 68.6948 57.422Z" fill="#B1B4C5"/>
<path id="BEATS Copy 4" d="M305.99 225V217.146H310.951V218.521H307.651V220.16H308.311C309.052 220.16 309.657 220.263 310.126 220.468C310.603 220.673 310.955 220.956 311.182 221.315C311.409 221.674 311.523 222.085 311.523 222.547C311.523 223.06 311.409 223.5 311.182 223.867C310.955 224.234 310.603 224.516 310.126 224.714C309.649 224.905 309.033 225 308.278 225H305.99ZM308.212 223.636C308.718 223.636 309.114 223.555 309.4 223.394C309.693 223.233 309.84 222.95 309.84 222.547C309.84 222.268 309.767 222.056 309.62 221.909C309.481 221.762 309.279 221.663 309.015 221.612C308.758 221.553 308.447 221.524 308.08 221.524H307.651V223.636H308.212ZM314.006 217.3C314.116 217.3 314.152 217.351 314.116 217.454L313.291 219.676C313.269 219.749 313.217 219.786 313.137 219.786H312.169C312.066 219.786 312.026 219.738 312.048 219.643L312.576 217.41C312.598 217.337 312.645 217.3 312.719 217.3H314.006ZM318.695 218.422C318.401 218.422 318.126 218.466 317.87 218.554C317.62 218.635 317.4 218.759 317.21 218.928C317.026 219.089 316.88 219.291 316.77 219.533C316.66 219.775 316.594 220.05 316.572 220.358H319.971V221.722H316.561C316.583 222.037 316.645 222.32 316.748 222.569C316.85 222.818 316.99 223.031 317.166 223.207C317.349 223.376 317.569 223.504 317.826 223.592C318.082 223.68 318.379 223.724 318.717 223.724C319.069 223.724 319.421 223.687 319.773 223.614C320.132 223.541 320.521 223.438 320.939 223.306V224.703C320.565 224.842 320.198 224.945 319.839 225.011C319.479 225.077 319.072 225.11 318.618 225.11C317.745 225.11 317.026 224.945 316.462 224.615C315.904 224.278 315.49 223.808 315.219 223.207C314.947 222.598 314.812 221.891 314.812 221.084C314.812 220.49 314.896 219.947 315.065 219.456C315.241 218.957 315.497 218.528 315.835 218.169C316.172 217.81 316.586 217.531 317.078 217.333C317.569 217.135 318.134 217.036 318.772 217.036C319.241 217.036 319.674 217.087 320.07 217.19C320.466 217.285 320.854 217.417 321.236 217.586L320.642 218.939C320.319 218.8 320.007 218.679 319.707 218.576C319.413 218.473 319.076 218.422 318.695 218.422Z" fill="#B1B4C5"/>
<path id="BEATS Copy 5" d="M1.99 225V217.146H6.951V218.521H3.651V220.16H4.311C5.05167 220.16 5.65667 220.263 6.126 220.468C6.60267 220.673 6.95467 220.956 7.182 221.315C7.40933 221.674 7.523 222.085 7.523 222.547C7.523 223.06 7.40933 223.5 7.182 223.867C6.95467 224.234 6.60267 224.516 6.126 224.714C5.64933 224.905 5.03333 225 4.278 225H1.99ZM4.212 223.636C4.718 223.636 5.114 223.555 5.4 223.394C5.69333 223.233 5.84 222.95 5.84 222.547C5.84 222.268 5.76667 222.056 5.62 221.909C5.48067 221.762 5.279 221.663 5.015 221.612C4.75833 221.553 4.44667 221.524 4.08 221.524H3.651V223.636H4.212ZM10.0056 217.3C10.1156 217.3 10.1523 217.351 10.1156 217.454L9.29065 219.676C9.26865 219.749 9.21732 219.786 9.13665 219.786H8.16865C8.06598 219.786 8.02565 219.738 8.04765 219.643L8.57565 217.41C8.59765 217.337 8.64532 217.3 8.71865 217.3H10.0056ZM14.6948 218.422C14.4015 218.422 14.1265 218.466 13.8698 218.554C13.6205 218.635 13.4005 218.759 13.2098 218.928C13.0265 219.089 12.8798 219.291 12.7698 219.533C12.6598 219.775 12.5938 220.05 12.5718 220.358H15.9708V221.722H12.5608C12.5828 222.037 12.6452 222.32 12.7478 222.569C12.8505 222.818 12.9898 223.031 13.1658 223.207C13.3492 223.376 13.5692 223.504 13.8258 223.592C14.0825 223.68 14.3795 223.724 14.7168 223.724C15.0688 223.724 15.4208 223.687 15.7728 223.614C16.1322 223.541 16.5208 223.438 16.9388 223.306V224.703C16.5648 224.842 16.1982 224.945 15.8388 225.011C15.4795 225.077 15.0725 225.11 14.6178 225.11C13.7452 225.11 13.0265 224.945 12.4618 224.615C11.9045 224.278 11.4902 223.808 11.2188 223.207C10.9475 222.598 10.8118 221.891 10.8118 221.084C10.8118 220.49 10.8962 219.947 11.0648 219.456C11.2408 218.957 11.4975 218.528 11.8348 218.169C12.1722 217.81 12.5865 217.531 13.0778 217.333C13.5692 217.135 14.1338 217.036 14.7718 217.036C15.2412 217.036 15.6738 217.087 16.0698 217.19C16.4658 217.285 16.8545 217.417 17.2358 217.586L16.6418 218.939C16.3192 218.8 16.0075 218.679 15.7068 218.576C15.4135 218.473 15.0762 218.422 14.6948 218.422Z" fill="#B1B4C5"/>
<path id="BEATS Copy 6" d="M160.99 328V320.146H165.951V321.521H162.651V323.16H163.311C164.052 323.16 164.657 323.263 165.126 323.468C165.603 323.673 165.955 323.956 166.182 324.315C166.409 324.674 166.523 325.085 166.523 325.547C166.523 326.06 166.409 326.5 166.182 326.867C165.955 327.234 165.603 327.516 165.126 327.714C164.649 327.905 164.033 328 163.278 328H160.99ZM163.212 326.636C163.718 326.636 164.114 326.555 164.4 326.394C164.693 326.233 164.84 325.95 164.84 325.547C164.84 325.268 164.767 325.056 164.62 324.909C164.481 324.762 164.279 324.663 164.015 324.612C163.758 324.553 163.447 324.524 163.08 324.524H162.651V326.636H163.212ZM169.006 320.3C169.116 320.3 169.152 320.351 169.116 320.454L168.291 322.676C168.269 322.749 168.217 322.786 168.137 322.786H167.169C167.066 322.786 167.026 322.738 167.048 322.643L167.576 320.41C167.598 320.337 167.645 320.3 167.719 320.3H169.006ZM173.695 321.422C173.401 321.422 173.126 321.466 172.87 321.554C172.62 321.635 172.4 321.759 172.21 321.928C172.026 322.089 171.88 322.291 171.77 322.533C171.66 322.775 171.594 323.05 171.572 323.358H174.971V324.722H171.561C171.583 325.037 171.645 325.32 171.748 325.569C171.85 325.818 171.99 326.031 172.166 326.207C172.349 326.376 172.569 326.504 172.826 326.592C173.082 326.68 173.379 326.724 173.717 326.724C174.069 326.724 174.421 326.687 174.773 326.614C175.132 326.541 175.521 326.438 175.939 326.306V327.703C175.565 327.842 175.198 327.945 174.839 328.011C174.479 328.077 174.072 328.11 173.618 328.11C172.745 328.11 172.026 327.945 171.462 327.615C170.904 327.278 170.49 326.808 170.219 326.207C169.947 325.598 169.812 324.891 169.812 324.084C169.812 323.49 169.896 322.947 170.065 322.456C170.241 321.957 170.497 321.528 170.835 321.169C171.172 320.81 171.586 320.531 172.078 320.333C172.569 320.135 173.134 320.036 173.772 320.036C174.241 320.036 174.674 320.087 175.07 320.19C175.466 320.285 175.854 320.417 176.236 320.586L175.642 321.939C175.319 321.8 175.007 321.679 174.707 321.576C174.413 321.473 174.076 321.422 173.695 321.422Z" fill="#B1B4C5"/>
</g>
<defs>
<linearGradient id="paint0_linear_0_784" x1="233" y1="92" x2="233" y2="192.345" gradientUnits="userSpaceOnUse">
<stop stop-color="white" stop-opacity="0.0966455"/>
<stop offset="1" stop-color="white" stop-opacity="0.01"/>
</linearGradient>
<linearGradient id="paint1_linear_0_784" x1="0" y1="92" x2="0" y2="192.345" gradientUnits="userSpaceOnUse">
<stop stop-color="white" stop-opacity="0.0966455"/>
<stop offset="1" stop-color="white" stop-opacity="0.01"/>
</linearGradient>
<linearGradient id="paint2_linear_0_784" x1="117" y1="0" x2="117" y2="100.345" gradientUnits="userSpaceOnUse">
<stop stop-color="white" stop-opacity="0.0966455"/>
<stop offset="1" stop-color="white" stop-opacity="0.01"/>
</linearGradient>
<linearGradient id="paint3_linear_0_784" x1="187" y1="225" x2="187" y2="325.345" gradientUnits="userSpaceOnUse">
<stop stop-color="white" stop-opacity="0.0966455"/>
<stop offset="1" stop-color="white" stop-opacity="0.01"/>
</linearGradient>
<linearGradient id="paint4_linear_0_784" x1="46" y1="225" x2="46" y2="325.345" gradientUnits="userSpaceOnUse">
<stop stop-color="white" stop-opacity="0.0966455"/>
<stop offset="1" stop-color="white" stop-opacity="0.01"/>
</linearGradient>
<clipPath id="clip0_0_784">
<rect width="336" height="330" fill="white"/>
</clipPath>
<clipPath id="clip1_0_784">
<rect width="88" height="21" fill="white" transform="translate(124 131)"/>
</clipPath>
<clipPath id="clip2_0_784">
<rect width="88" height="22" fill="white" transform="translate(123.365 162.291) rotate(40)"/>
</clipPath>
<clipPath id="clip3_0_784">
<rect width="88" height="22" fill="white" transform="translate(145.223 218.856) rotate(-40)"/>
</clipPath>
<clipPath id="clip4_0_784">
<rect width="88" height="22" fill="white" transform="translate(201.712 211.109) rotate(-110)"/>
</clipPath>
<clipPath id="clip5_0_784">
<rect width="88" height="22" fill="white" transform="translate(164.385 128.416) rotate(110)"/>
</clipPath>
</defs>
</svg>
