<svg width="132" height="116" viewBox="0 0 132 116" fill="none" xmlns="http://www.w3.org/2000/svg">
<g filter="url(#filter0_d_0_1025)">
<path d="M22.816 21H18L10.748 10.864V21H6.52V1.008H10.748V10.696L17.916 1.008H22.424L15.144 10.612L22.816 21ZM37.5685 21L36.1125 16.24H28.8325L27.3765 21H22.8125L29.8685 0.924H35.0485L42.1325 21H37.5685ZM33.6485 8.036C33.5552 7.71867 33.4338 7.31733 33.2845 6.832C33.1352 6.34667 32.9858 5.852 32.8365 5.348C32.6872 4.844 32.5658 4.40533 32.4725 4.032C32.3792 4.40533 32.2485 4.872 32.0805 5.432C31.9312 5.97333 31.7818 6.496 31.6325 7C31.5018 7.48533 31.3992 7.83067 31.3245 8.036L29.8965 12.684H35.1045L33.6485 8.036ZM53.1205 21L48.3045 5.32H48.1925C48.2112 5.69333 48.2392 6.25333 48.2765 7C48.3139 7.74667 48.3512 8.54933 48.3885 9.408C48.4259 10.248 48.4445 11.0133 48.4445 11.704V21H44.6645V1.008H50.4325L55.1645 16.296H55.2485L60.2605 1.008H66.0285V21H62.0805V11.536C62.0805 10.9013 62.0899 10.1733 62.1085 9.352C62.1459 8.53067 62.1739 7.756 62.1925 7.028C62.2299 6.28133 62.2579 5.72133 62.2765 5.348H62.1645L57.0125 21H53.1205ZM78.5546 21H69.4546V18.592L71.8906 17.472V4.536L69.4546 3.416V1.008H78.5546V3.416L76.1186 4.536V17.472L78.5546 18.592V21ZM98.3414 21H94.1134V12.376H86.1894V21H81.9614V1.008H86.1894V8.848H94.1134V1.008H98.3414V21ZM103.372 21V1.008H107.6V8.68H109.28C111.165 8.68 112.705 8.94133 113.9 9.464C115.113 9.98667 116.009 10.7053 116.588 11.62C117.166 12.5347 117.456 13.58 117.456 14.756C117.456 16.0627 117.166 17.1827 116.588 18.116C116.009 19.0493 115.113 19.768 113.9 20.272C112.686 20.7573 111.118 21 109.196 21H103.372ZM109.028 17.528C110.316 17.528 111.324 17.3227 112.052 16.912C112.798 16.5013 113.172 15.7827 113.172 14.756C113.172 14.0467 112.985 13.5053 112.612 13.132C112.257 12.7587 111.744 12.5067 111.072 12.376C110.418 12.2267 109.625 12.152 108.692 12.152H107.6V17.528H109.028ZM22.9 43H18.672V34.376H10.748V43H6.52V23.008H10.748V30.848H18.672V23.008H22.9V43ZM46.0742 32.976C46.0742 34.5253 45.8782 35.9347 45.4862 37.204C45.1128 38.4547 44.5342 39.5373 43.7502 40.452C42.9848 41.3667 41.9955 42.0667 40.7822 42.552C39.5875 43.0373 38.1782 43.28 36.5542 43.28C34.9302 43.28 33.5115 43.0373 32.2982 42.552C31.1035 42.048 30.1142 41.348 29.3302 40.452C28.5648 39.5373 27.9862 38.4453 27.5942 37.176C27.2208 35.9067 27.0342 34.4973 27.0342 32.948C27.0342 30.876 27.3702 29.0747 28.0422 27.544C28.7328 26.0133 29.7782 24.828 31.1782 23.988C32.5968 23.1293 34.3982 22.7 36.5822 22.7C38.7475 22.7 40.5302 23.1293 41.9302 23.988C43.3302 24.828 44.3662 26.0227 45.0382 27.572C45.7288 29.1027 46.0742 30.904 46.0742 32.976ZM31.4862 32.976C31.4862 34.376 31.6635 35.58 32.0182 36.588C32.3728 37.596 32.9235 38.3707 33.6702 38.912C34.4168 39.4533 35.3782 39.724 36.5542 39.724C37.7675 39.724 38.7382 39.4533 39.4662 38.912C40.2128 38.3707 40.7542 37.596 41.0902 36.588C41.4448 35.58 41.6222 34.376 41.6222 32.976C41.6222 30.8667 41.2302 29.2147 40.4462 28.02C39.6622 26.8253 38.3742 26.228 36.5822 26.228C35.3875 26.228 34.4168 26.4987 33.6702 27.04C32.9235 27.5813 32.3728 28.356 32.0182 29.364C31.6635 30.372 31.4862 31.576 31.4862 32.976ZM54.2604 32.612L47.5404 23.008H51.9084L58.3764 32.696V23.008H62.3244V32.696L68.7924 23.008H73.1604L66.4404 32.612L73.5524 43H69.0164L62.3244 32.864V43H58.3764V32.864L51.6844 43H47.1484L54.2604 32.612ZM76.0825 23.008H79.8905V32.668C79.8905 33.1347 79.8812 33.6573 79.8625 34.236C79.8438 34.8147 79.8252 35.384 79.8065 35.944C79.7878 36.4853 79.7692 36.9613 79.7505 37.372C79.7318 37.764 79.7132 38.0347 79.6945 38.184H79.7785L89.0185 23.008H94.0865V43H90.3065V33.396C90.3065 32.892 90.3158 32.3413 90.3345 31.744C90.3532 31.128 90.3718 30.54 90.3905 29.98C90.4278 29.42 90.4558 28.9347 90.4745 28.524C90.5118 28.0947 90.5398 27.8147 90.5585 27.684H90.4465L81.1785 43H76.0825V23.008ZM117.921 39.64V48.824H113.833V43H99.1333V23.008H103.361V39.472H110.725V23.008H114.953V39.64H117.921ZM128.484 43H119.384V40.592L121.82 39.472V26.536L119.384 25.416V23.008H128.484V25.416L126.048 26.536V39.472L128.484 40.592V43ZM6.52 65V45.008H22.34V65H18.112V48.536H10.748V65H6.52ZM39.6193 65L38.1633 60.24H30.8833L29.4273 65H24.8633L31.9193 44.924H37.0993L44.1833 65H39.6193ZM35.6993 52.036C35.6059 51.7187 35.4846 51.3173 35.3353 50.832C35.1859 50.3467 35.0366 49.852 34.8873 49.348C34.7379 48.844 34.6166 48.4053 34.5233 48.032C34.4299 48.4053 34.2993 48.872 34.1313 49.432C33.9819 49.9733 33.8326 50.496 33.6833 51C33.5526 51.4853 33.4499 51.8307 33.3753 52.036L31.9473 56.684H37.1553L35.6993 52.036ZM46.7153 65V45.008H62.5353V65H58.3073V48.536H50.9433V65H46.7153ZM75.0546 65H65.9546V62.592L68.3906 61.472V48.536L65.9546 47.416V45.008H75.0546V47.416L72.6186 48.536V61.472L75.0546 62.592V65ZM84.8454 45.008C87.4214 45.008 89.2974 45.568 90.4734 46.688C91.6681 47.7893 92.2654 49.3107 92.2654 51.252C92.2654 52.1293 92.1347 52.9693 91.8734 53.772C91.6121 54.556 91.1734 55.2653 90.5574 55.9C89.9601 56.516 89.1667 57.0013 88.1774 57.356C87.1881 57.7107 85.9654 57.888 84.5094 57.888H82.6894V65H78.4614V45.008H84.8454ZM84.6214 48.48H82.6894V54.416H84.0894C84.8921 54.416 85.5827 54.3133 86.1614 54.108C86.7401 53.9027 87.1881 53.576 87.5054 53.128C87.8227 52.68 87.9814 52.1013 87.9814 51.392C87.9814 50.4027 87.7107 49.6747 87.1694 49.208C86.6281 48.7227 85.7787 48.48 84.6214 48.48ZM13.24 79.328L8.564 87H3.86L9.544 78.208C9.00267 77.984 8.46133 77.6573 7.92 77.228C7.37867 76.78 6.93067 76.192 6.576 75.464C6.22133 74.7173 6.044 73.8027 6.044 72.72C6.044 70.872 6.70667 69.4627 8.032 68.492C9.35733 67.5027 11.2147 67.008 13.604 67.008H20.1V87H15.872V79.328H13.24ZM13.772 70.48C13.044 70.48 12.4187 70.564 11.896 70.732C11.392 70.9 11 71.1707 10.72 71.544C10.4587 71.9173 10.328 72.412 10.328 73.028C10.328 73.9053 10.6173 74.6053 11.196 75.128C11.7933 75.632 12.6893 75.884 13.884 75.884H15.872V70.48H13.772ZM53.2531 83.64V92.824H49.1651V87H25.1411V67.008H29.3691V83.472H35.5851V67.008H39.8411V83.472H46.0571V67.008H50.2851V83.64H53.2531ZM63.8163 87H54.7163V84.592L57.1523 83.472V70.536L54.7163 69.416V67.008H63.8163V69.416L61.3803 70.536V83.472L63.8163 84.592V87ZM73.6071 67.008C76.1831 67.008 78.0591 67.568 79.2351 68.688C80.4298 69.7893 81.0271 71.3107 81.0271 73.252C81.0271 74.1293 80.8965 74.9693 80.6351 75.772C80.3738 76.556 79.9351 77.2653 79.3191 77.9C78.7218 78.516 77.9285 79.0013 76.9391 79.356C75.9498 79.7107 74.7271 79.888 73.2711 79.888H71.4511V87H67.2231V67.008H73.6071ZM73.3831 70.48H71.4511V76.416H72.8511C73.6538 76.416 74.3445 76.3133 74.9231 76.108C75.5018 75.9027 75.9498 75.576 76.2671 75.128C76.5845 74.68 76.7431 74.1013 76.7431 73.392C76.7431 72.4027 76.4725 71.6747 75.9311 71.208C75.3898 70.7227 74.5405 70.48 73.3831 70.48ZM101.101 87H96.2852L89.0332 76.864V87H84.8052V67.008H89.0332V76.696L96.2012 67.008H100.709L93.4292 76.612L101.101 87ZM115.854 87L114.398 82.24H107.118L105.662 87H101.098L108.154 66.924H113.334L120.418 87H115.854ZM111.934 74.036C111.84 73.7187 111.719 73.3173 111.57 72.832C111.42 72.3467 111.271 71.852 111.122 71.348C110.972 70.844 110.851 70.4053 110.758 70.032C110.664 70.4053 110.534 70.872 110.366 71.432C110.216 71.9733 110.067 72.496 109.918 73C109.787 73.4853 109.684 73.8307 109.61 74.036L108.182 78.684H113.39L111.934 74.036ZM15.004 92.256C14.2013 92.256 13.4827 92.4147 12.848 92.732C12.232 93.0493 11.7093 93.5067 11.28 94.104C10.8507 94.6827 10.524 95.392 10.3 96.232C10.0947 97.072 9.992 98.0147 9.992 99.06C9.992 100.479 10.16 101.692 10.496 102.7C10.8507 103.689 11.4013 104.445 12.148 104.968C12.8947 105.491 13.8467 105.752 15.004 105.752C15.8253 105.752 16.6373 105.659 17.44 105.472C18.2613 105.285 19.148 105.024 20.1 104.688V108.244C19.2227 108.599 18.3547 108.86 17.496 109.028C16.6373 109.196 15.676 109.28 14.612 109.28C12.5587 109.28 10.86 108.86 9.516 108.02C8.19067 107.161 7.21067 105.967 6.576 104.436C5.94133 102.887 5.624 101.085 5.624 99.032C5.624 97.52 5.82933 96.1387 6.24 94.888C6.65067 93.6187 7.248 92.5267 8.032 91.612C8.83467 90.6973 9.81467 89.988 10.972 89.484C12.148 88.98 13.492 88.728 15.004 88.728C15.9933 88.728 16.9827 88.8587 17.972 89.12C18.98 89.3627 19.9413 89.6987 20.856 90.128L19.484 93.572C18.7373 93.2173 17.9813 92.9093 17.216 92.648C16.4693 92.3867 15.732 92.256 15.004 92.256ZM24.3481 109V89.008H40.1681V109H35.9401V92.536H28.5761V109H24.3481ZM63.3554 98.976C63.3554 100.525 63.1594 101.935 62.7674 103.204C62.3941 104.455 61.8154 105.537 61.0314 106.452C60.2661 107.367 59.2767 108.067 58.0634 108.552C56.8687 109.037 55.4594 109.28 53.8354 109.28C52.2114 109.28 50.7927 109.037 49.5794 108.552C48.3847 108.048 47.3954 107.348 46.6114 106.452C45.8461 105.537 45.2674 104.445 44.8754 103.176C44.5021 101.907 44.3154 100.497 44.3154 98.948C44.3154 96.876 44.6514 95.0747 45.3234 93.544C46.0141 92.0133 47.0594 90.828 48.4594 89.988C49.8781 89.1293 51.6794 88.7 53.8634 88.7C56.0287 88.7 57.8114 89.1293 59.2114 89.988C60.6114 90.828 61.6474 92.0227 62.3194 93.572C63.0101 95.1027 63.3554 96.904 63.3554 98.976ZM48.7674 98.976C48.7674 100.376 48.9447 101.58 49.2994 102.588C49.6541 103.596 50.2047 104.371 50.9514 104.912C51.6981 105.453 52.6594 105.724 53.8354 105.724C55.0487 105.724 56.0194 105.453 56.7474 104.912C57.4941 104.371 58.0354 103.596 58.3714 102.588C58.7261 101.58 58.9034 100.376 58.9034 98.976C58.9034 96.8667 58.5114 95.2147 57.7274 94.02C56.9434 92.8253 55.6554 92.228 53.8634 92.228C52.6687 92.228 51.6981 92.4987 50.9514 93.04C50.2047 93.5813 49.6541 94.356 49.2994 95.364C48.9447 96.372 48.7674 97.576 48.7674 98.976ZM83.7926 109H78.9766L71.7246 98.864V109H67.4966V89.008H71.7246V98.696L78.8926 89.008H83.4006L76.1206 98.612L83.7926 109Z" fill="white"/>
</g>
<defs>
<filter id="filter0_d_0_1025" x="0.860107" y="0.923828" width="130.624" height="114.356" filterUnits="userSpaceOnUse" color-interpolation-filters="sRGB">
<feFlood flood-opacity="0" result="BackgroundImageFix"/>
<feColorMatrix in="SourceAlpha" type="matrix" values="0 0 0 0 0 0 0 0 0 0 0 0 0 0 0 0 0 0 127 0" result="hardAlpha"/>
<feOffset dy="3"/>
<feGaussianBlur stdDeviation="1.5"/>
<feColorMatrix type="matrix" values="0 0 0 0 0 0 0 0 0 0 0 0 0 0 0 0 0 0 0.196706 0"/>
<feBlend mode="normal" in2="BackgroundImageFix" result="effect1_dropShadow_0_1025"/>
<feBlend mode="normal" in="SourceGraphic" in2="effect1_dropShadow_0_1025" result="shape"/>
</filter>
</defs>
</svg>
