<svg width="157" height="24" viewBox="0 0 157 24" fill="none" xmlns="http://www.w3.org/2000/svg">
<path d="M0.88 23V0.151999H18.96V23H14.128V4.184H5.712V23H0.88ZM32.0198 0.151999C34.9638 0.151999 37.1078 0.791999 38.4518 2.072C39.8171 3.33067 40.4998 5.06933 40.4998 7.288C40.4998 8.29067 40.3504 9.25067 40.0518 10.168C39.7531 11.064 39.2518 11.8747 38.5478 12.6C37.8651 13.304 36.9584 13.8587 35.8278 14.264C34.6971 14.6693 33.2998 14.872 31.6358 14.872H29.5558V23H24.7238V0.151999H32.0198ZM31.7638 4.12H29.5558V10.904H31.1558C32.0731 10.904 32.8624 10.7867 33.5238 10.552C34.1851 10.3173 34.6971 9.944 35.0598 9.432C35.4224 8.92 35.6038 8.25867 35.6038 7.448C35.6038 6.31733 35.2944 5.48533 34.6758 4.952C34.0571 4.39733 33.0864 4.12 31.7638 4.12ZM57.2078 23L55.5438 17.56H47.2238L45.5598 23H40.3438L48.4078 0.0559998H54.3278L62.4238 23H57.2078ZM52.7278 8.184C52.6211 7.82133 52.4824 7.36267 52.3118 6.808C52.1411 6.25333 51.9704 5.688 51.7998 5.112C51.6291 4.536 51.4904 4.03467 51.3838 3.608C51.2771 4.03467 51.1278 4.568 50.9358 5.208C50.7651 5.82667 50.5944 6.424 50.4238 7C50.2744 7.55467 50.1571 7.94933 50.0718 8.184L48.4398 13.496H54.3918L52.7278 8.184ZM72.4215 0.151999C74.4482 0.151999 76.1442 0.343999 77.5095 0.727999C78.8962 1.09067 79.9308 1.69867 80.6135 2.552C81.3175 3.384 81.6695 4.51467 81.6695 5.944C81.6695 6.79733 81.5308 7.576 81.2535 8.28C80.9762 8.984 80.5708 9.56 80.0375 10.008C79.5255 10.456 78.8962 10.744 78.1495 10.872V11.032C78.9175 11.1813 79.6108 11.448 80.2295 11.832C80.8482 12.216 81.3388 12.7707 81.7015 13.496C82.0642 14.2213 82.2455 15.1813 82.2455 16.376C82.2455 17.7627 81.9042 18.9573 81.2215 19.96C80.5602 20.9413 79.6002 21.6987 78.3415 22.232C77.0828 22.744 75.5895 23 73.8615 23H65.3175V0.151999H72.4215ZM72.9655 9.208C74.3735 9.208 75.3442 8.984 75.8775 8.536C76.4322 8.088 76.7095 7.43733 76.7095 6.584C76.7095 5.70933 76.3895 5.08 75.7495 4.696C75.1095 4.312 74.0962 4.12 72.7095 4.12H70.1495V9.208H72.9655ZM70.1495 13.048V19H73.3175C74.7682 19 75.7815 18.7227 76.3575 18.168C76.9335 17.592 77.2215 16.8347 77.2215 15.896C77.2215 15.32 77.0935 14.8187 76.8375 14.392C76.6028 13.9653 76.1868 13.6347 75.5895 13.4C74.9922 13.1653 74.1815 13.048 73.1575 13.048H70.1495ZM86.8175 0.151999H91.1695V11.192C91.1695 11.7253 91.1588 12.3227 91.1375 12.984C91.1162 13.6453 91.0948 14.296 91.0735 14.936C91.0522 15.5547 91.0308 16.0987 91.0095 16.568C90.9882 17.016 90.9668 17.3253 90.9455 17.496H91.0415L101.602 0.151999H107.394V23H103.074V12.024C103.074 11.448 103.084 10.8187 103.106 10.136C103.127 9.432 103.148 8.76 103.17 8.12C103.212 7.48 103.244 6.92533 103.266 6.456C103.308 5.96533 103.34 5.64533 103.362 5.496H103.234L92.6415 23H86.8175V0.151999ZM131.241 23H126.409V4.184H120.809C120.681 5.16533 120.543 6.232 120.393 7.384C120.265 8.536 120.116 9.70933 119.945 10.904C119.796 12.0773 119.636 13.1973 119.465 14.264C119.295 15.3093 119.124 16.2373 118.953 17.048C118.676 18.3707 118.303 19.5013 117.833 20.44C117.385 21.3787 116.756 22.0933 115.945 22.584C115.156 23.0747 114.121 23.32 112.841 23.32C112.415 23.32 112.009 23.288 111.625 23.224C111.241 23.16 110.879 23.0747 110.537 22.968V19C110.815 19.0853 111.081 19.16 111.337 19.224C111.615 19.288 111.913 19.32 112.233 19.32C112.66 19.32 113.012 19.1813 113.289 18.904C113.567 18.6267 113.812 18.1573 114.025 17.496C114.239 16.8133 114.452 15.8747 114.665 14.68C114.772 14.168 114.9 13.4427 115.049 12.504C115.199 11.544 115.369 10.424 115.561 9.144C115.775 7.84267 115.988 6.43467 116.201 4.92C116.415 3.384 116.617 1.79467 116.809 0.151999H131.241V23ZM150.989 23L149.325 17.56H141.005L139.341 23H134.125L142.189 0.0559998H148.109L156.205 23H150.989ZM146.509 8.184C146.402 7.82133 146.264 7.36267 146.093 6.808C145.922 6.25333 145.752 5.688 145.581 5.112C145.41 4.536 145.272 4.03467 145.165 3.608C145.058 4.03467 144.909 4.568 144.717 5.208C144.546 5.82667 144.376 6.424 144.205 7C144.056 7.55467 143.938 7.94933 143.853 8.184L142.221 13.496H148.173L146.509 8.184Z" fill="#3B4262"/>
</svg>
